<svg version="1.1" id="Layer_1" xmlns="http://www.w3.org/2000/svg" xmlns:xlink="http://www.w3.org/1999/xlink" x="0px" y="0px" viewBox="0 0 1008 669.9" style="enable-background:new 0 0 1008 669.9;" xml:space="preserve">
<style type="text/css">
	.st0{fill:#173C85;}
	.st1{fill:#8EB7FB;}
	.st2{fill:#172E5A;}
	.st3{fill:#BFD5FA;}
	.st4{fill:#DC9583;}
	.st5{fill:url(#SVGID_1_);}
	.st6{fill:#AA7062;}
	.st7{fill:#739B9D;}
	.st8{fill:#1A6CFE;}
	.st9{fill:url(#SVGID_00000171680238077036887910000005008158637697471885_);}
	.st10{fill:#FFFFFF;}
	.st11{fill:url(#SVGID_00000003789809207752133220000003779069238497381766_);}
	.st12{fill:#AC7036;}
</style>
<g id="Layer_2_00000070841145084486802620000010414409462412877219_">
	<g id="Background">
		<path class="st0" d="M1020.2-148.7H-12.2v835.4h1032.5V-148.7z"></path>
	</g>
</g>
<g id="Layer_1_00000027600925772469463560000017907609902355720617_">
	<path class="st1" d="M879.4,408.6c0,0,10.2-0.9,16.8,0.4c8.1,1.7,12,6.4,12.7,12.6c0.7,6.4-2.5,11-8.9,12.7
		c-5.2,1.4-17.1,1.4-17.1,1.4L879.4,408.6z"></path>
	<path class="st2" d="M858.5,454.4l1.7,12.8c0.4,2.9,2.9,5.2,6,5.2h31.5c2.9,0,5.3-2.1,5.6-5v-0.1c0.3-2.5-0.6-6.3-7-7.9
		c-6.1-1.5-7.4-5.6-7.4-5.6L858.5,454.4z"></path>
	<path class="st2" d="M837.9,454.3l1.7,16.8c0.4,2.9,2.9,5.2,6,5.2h31.5c2.9,0,5.3-2.1,5.6-5v-0.1c0.3-2.5-0.4-5.5-4.5-8.6
		c-5-3.8-9.9-4.9-9.9-4.9L837.9,454.3z"></path>
	<path class="st3" d="M874.6,289.8c-8-5.4-14.3-2.7-26.1-2.7s-21.6-2.9-27.9,4.7c-5.3,6.5-4.3,14.4,1.2,20.2s18.3,5.8,24.2,5.8
		c6,0,27.5,2.8,32.9-6.9C883.2,303.6,881.1,294.1,874.6,289.8z"></path>
	<path class="st4" d="M387.3,549.9c0,0-0.2,3.6-5.6,4.3c-5.8,0.8-8.5,2.7-9,6.5c-0.4,2.7,1,5.6,3.8,6.9c0.8,0.4,1.7,0.5,2.6,0.5
		h28.5c3.3,0,6-2.7,6-6V550L387.3,549.9L387.3,549.9z"></path>
	
		<linearGradient id="SVGID_1_" gradientUnits="userSpaceOnUse" x1="652.2523" y1="-882.772" x2="941.4504" y2="-882.772" gradientTransform="matrix(1 0 0 1 0 1242.236)">
		<stop offset="6.480000e-02" style="stop-color:#FFFFFF"></stop>
		<stop offset="0.1534" style="stop-color:#F5F9FF"></stop>
		<stop offset="0.305" style="stop-color:#DAE7FE"></stop>
		<stop offset="0.4999" style="stop-color:#ADCBFC"></stop>
		<stop offset="0.6232" style="stop-color:#8EB7FB"></stop>
	</linearGradient>
	<path class="st5" d="M871.8,335c-10.1-3.7-21.5,1.7-25-4.5c-1.7-3,0.2-6.1,0.7-10c0.5-4.4-1.3-8.6-5.2-11c-6.2-3.8-14.3-5.1-29.7-5
		c-14.7,0-17.4,3.7-29.1,6.9c-10.3,2.9-19.1-0.7-28.2,0.1c-7.7,0.6-13.3,3.9-15.1,10.4c-1.8,6.1,2.9,10.7,2.5,14.2
		c-0.3,2.9-2.3,4.7-4.9,5.3c-7,1.5-18.5,0.7-21.7,10.2c-1.3,4.2-1.2,7.8,0.7,11c1.3,2.3,4.3,4.6,6.4,6.4c3.9,3.1,4.2,9.6-3.3,12.5
		c-7.8,3-11.6,8.7-10.3,16.3c1.6,9.6,9.4,15,22.9,16.1c13.5,1.2,39.1,0,39.1,0l55,0.5l30-24c0,0,12.3-1.2,11.8-12.3
		c-0.3-4.9-2-10.5-0.6-13.4c2-4.7,5-3.7,9.2-6.8C885.2,352.2,881.9,338.7,871.8,335z M824.3,345.3c-1.3,4.5-3.7,5.7-2.2,11
		c0.9,3.5,2.9,6.6,1.8,11.9c-0.7,3.4-4.1,5.5-7.6,6.1c-3.5,0.5-14.5,0-14.5,0l-15.1-21.5l9.5-17.3c0,0,13.7-1,21,0.2
		C822.4,336.5,825.5,340.8,824.3,345.3z"></path>
	<path class="st2" d="M206.8,425H297c0,0,12-7.1,8.5-21.5c-1.5-6.1-4-7.2-5.2-11.4c-1.6-5.7,1.2-10-0.4-15c-3.2-10-14-5.3-17.6-12.7
		c-2.7-5.3-5.3-10.3-13.7-10.3h-48.7c0,0-17.7,0-20.9,13.8L206.8,425z"></path>
	<path class="st6" d="M185.6,309.6c0,0,2.2,5.3,2.5,10s-0.4,6.1,2.8,8.6c2,1.6,2.9,3.2,3,5.1c0.1,2-0.5,3.6-1.9,5.1
		c-1.7,1.9-1.7,4.1-1.3,7.2c0.4,3.2,0.6,10-4.7,13.9h-16.2l-2.8-32.8l12.4-15L185.6,309.6z"></path>
	<path class="st7" d="M233.8,437H90.5c-1.2-26.3,2.2-44.3,9.4-55.9c13.8-22.3,35.8-22.3,35.8-22.3h51C243.3,363,233.8,437,233.8,437
		z"></path>
	<path class="st2" d="M176.9,300.6c3.4,0,5.7,0.7,8,2.5c4.5,3.6,4.1,11.4-0.6,15.1c-4.5,3.5-2.2,7.3-2.7,11
		c-0.6,5.3-4.1,6.2-4.4,10.3s1.5,4.5,1.7,11.7c0.1,4.4-2.1,10.2-10.3,11.4c-0.4,0.1-1,0.1-1.4,0.1h-29.1c-0.5,0-1.1,0-1.6-0.1
		c-3.2-0.5-13.4-2.7-13.2-14.8c0.1-2.9,1.4-6.6,0.2-10.6c-1.6-5.5-2.4-11,2-15.7c1.4-1.5,3.2-3.3,3.6-5.7c1-5.7,2-9.1,7-11.3
		c2.6-1.2,6.9-1,10-2.2c2.7-1.1,5.1-3.7,10-3.7c5.3,0,7,2,10.8,2.4C172,301.5,172.1,300.6,176.9,300.6z"></path>
	<path class="st2" d="M282.5,547.5h116.4c0,0,5.8-52.5-13.9-72.5c-5.8-5.9-16.4-14-35.1-11.5c-12.4,1.7-23.8,8.4-30.1,25.9
		C319.9,489.5,278.5,481.2,282.5,547.5z"></path>
	<path class="st2" d="M781.6,361.2h19.5c0,0,2.7-1.8,3.2-6.2c0.4-2.9-0.4-6.7-1.3-10.7c-2.3-9.8-2.2-10.5-2.2-10.5l-11.9,1.2
		L781.6,361.2z"></path>
	<path class="st8" d="M466.5,519.7v47.9c0,0-19,10.3-32.2-3.2v-11h-29.9v-3.5h-19.5v-39.2c0,0-0.1-5.8,0.6-10.6
		c0.9-5.7,3.5-11.8,10.1-14.5c4.3-1.8,11.8-1.5,16,2C411.8,487.5,436,467.4,466.5,519.7z"></path>
	
		<linearGradient id="SVGID_00000091001593261860295380000011277949238053317034_" gradientUnits="userSpaceOnUse" x1="602.0162" y1="-743.2935" x2="719.1721" y2="-743.2935" gradientTransform="matrix(1 0 0 1 0 1242.236)">
		<stop offset="6.480000e-02" style="stop-color:#8EB7FB"></stop>
		<stop offset="0.1988" style="stop-color:#84B0FB"></stop>
		<stop offset="0.428" style="stop-color:#699FFC"></stop>
		<stop offset="0.7228" style="stop-color:#3C82FD"></stop>
		<stop offset="0.9262" style="stop-color:#1A6CFE"></stop>
	</linearGradient>
	<path style="fill:url(#SVGID_00000091001593261860295380000011277949238053317034_);" d="M666.3,461.8c-9.9-0.2-23.5-1.4-27.2,8
		c-2.8,7.1,1.1,11.2-3.5,15.3c-5,4.4-12.9,1.2-21.7,3.2c-7.1,1.7-13.3,7.6-11.6,18.3c1.6,10.3,11.8,13.5,19.8,13.6
		c7,0.1,12.3-0.2,16.7,6.1c4.8,7,10.2,9.2,20.5,9.7c11.8,0.6,17.4-0.5,34.8,0.2c15.6,0.6,27-5.3,24.8-18.5
		c-1.4-8.2-8.7-8.9-11.8-12.2c-1.4-1.5-2-3.5-2.1-5.5c-0.5-7.5-3-10.4-9.1-13.1c-9.3-4.1-5.6-7.8-7.8-14.4
		C686.1,466.4,680.3,462.2,666.3,461.8z"></path>
	<path class="st4" d="M478.4,451.5c0,0,0.2,3.7-0.8,7c-1.1,3.7-3.5,11.7,3.2,15.7c4.6,2.8,11.8,1.4,11.8,1.4l-0.3-23.6L478.4,451.5z"></path>
	<path class="st2" d="M515.8,457c-1-4.1-3.4-8.6-9-11.7c-3.4-1.9-7.8-2.9-13.6-2.9c-5.9,0-10.5-0.4-13.8,2.4
		c-1.5,1.2-2.9,3.6-1.8,6.6c0.8,2.2,3.1,3.1,6.1,3.6s4.6,1.9,4.6,5.2c0,3.3-2.9,7.7-2,11.6c0.8,3.9,3.6,6.5,7.1,6.8
		c3.6,0.3,16.5,0,16.5,0s5.7,0,7.3-6.8C518.5,465.5,516.1,458.5,515.8,457z"></path>
	<path class="st7" d="M749.7,428.2c0,0-1.6,18.3,8.1,31.5c10.7,14.4,28.1,17.6,42.9,15.7c10.2-1.3,18.6-6.5,24-12.4
		c6.9-7.6,9.4-16,9.4-16l1.9,10.2c0.2,1.1,1.2,1.9,2.2,1.9h35.7c1.3,0,2.4-1.2,2.2-2.5l-0.3-2.5H891c1.1,0,1.9-0.9,1.9-2
		c-0.6-12.4-2.7-44.4-10.2-58.8c-3.8-7.4-9.4-10.5-16.5-9.7c-6.8,0.7-10.4,5.9-10.4,5.9s-4.8-8.7-15.8-9c-5.9-0.2-11.9,1.7-16.2,6.1
		c-3.7,3.9-6.1,7.8-7.6,10.1C806.6,411,803,425,803,425L749.7,428.2z"></path>
	<path class="st2" d="M806.8,415.7c0,0,9.9-1.4,14.3-2c2.8-0.4,4,0.3,4.6,1.2c1.2,1.8,0,3.7-1.1,4.9c-1,1.2-0.5,4.1,2.9,3.2
		c3.1-0.8,7.5-3.8,10.7-3.1c2.3,0.5,2.4,3.6,1.4,4.7c0,0,2.7,1.7,0.4,5.4c0,0,2.6,2.7-0.7,6c0,0,2,4.3-4.3,8
		c-5.3,3.2-16.6,6-29.3,4.1L806.8,415.7z"></path>
	<path class="st8" d="M816.3,396.6l-8.1,14.3v35.7c0,3-2.3,5.5-5.3,5.8c-13.3,1.2-25.6,1.4-34.8-0.4c-16-3.1-24.6-12.7-27.7-24.9
		c-0.8-3.3-1.5-8.5-1.5-12.7c0,0,20.9,0.9,26.6-0.6c2.7-0.7,5.2-2.1,6.5-4.1c1.8-2.5,2-6.4,0.8-8.8c-2.7-4.9-5.9-3.6-9.4-7.6
		c-1.2-1.4-1.1-3.5-0.6-4.5c0.7-1.8,2.9-3.5,2.5-7.1c-0.6-6.1-7.5-6.3-7.5-6.3h-9.7c8.5-17.3,25.6-14.3,25.6-14.3h27.7L816.3,396.6z"></path>
	<path class="st10" d="M794.3,340.6c0,0,7.9,0.2,8.7-5.7c0.6-4.8-2.4-8.8-7.8-9.6c-3.7-0.5-6.1,1-6.1,1s-5.3-3-9.6,1.5
		c0,0-5.6-2.7-8.6,2.9c0,0-5.9-0.2-5.8,7c0,0-4.9,1.7-3.3,7.9c0,0-2.1,2-1.5,5.7c0.3,1.4,1.5,3.5,3.3,4.1c0,0-0.2,2.7,1.3,4.5
		c1,1.2,3.1,1.9,5.3,1.1c0,0,2,2.5,4.8,2.5c1.4,0,3.4-0.4,4.5-1.9c0,0,3,1.3,5.7,0c1.2-0.5,2.2-2,2.1-4.1c0,0,2.9-0.2,4.5-2.4
		c0.8-1.1,1.3-3.4,0.7-5.4c0,0,2.2-1.2,2.6-4C795.4,344.3,795.4,342.3,794.3,340.6z"></path>
	<path class="st1" d="M211.9,309.4c0,0-3.9,1.9-4.5,8.5c-0.4,4.1,2.6,8.5,1.2,13c-0.9,2.9-3.2,4.9-3.8,8.6c-0.9,5,1.2,8.5,4.8,10.9
		c4.1,2.9,2.8,7.9,6.5,11.3c2.8,2.5,7.6,2.8,13.1,2.8c4.5,0,16.5,0.5,20.6-0.1c4.5-0.7,7.7-5,7.2-10.1l-3.9-17.5l-25.4-26.5
		L211.9,309.4z"></path>
	<path class="st10" d="M235.7,348.5c-3.7-0.2-4.9,0.7-9.3,0c-3.1-0.4-5.5-3.7-4.5-7.5c1.1-4.3,5.8-4,5.8-4s4.4-0.4,8.9-0.3
		C234.9,339.1,233.5,343,235.7,348.5z"></path>
	<path class="st2" d="M247.5,343.2c-0.4,7.8-8.3,5.5-11.4,5.3c-0.1,0-0.3,0-0.4,0c-2.2-5.5-0.8-9.4,0.8-11.8c1.8,0,3.6,0.1,5.2,0.3
		C247.4,337.6,247.5,343.2,247.5,343.2z"></path>
	
		<linearGradient id="SVGID_00000018232486547533669010000014917459217365944196_" gradientUnits="userSpaceOnUse" x1="181.9851" y1="-915.3229" x2="282.1055" y2="-915.3229" gradientTransform="matrix(1 0 0 1 0 1242.236)">
		<stop offset="6.480000e-02" style="stop-color:#8EB7FB"></stop>
		<stop offset="0.1811" style="stop-color:#84B0FB"></stop>
		<stop offset="0.38" style="stop-color:#699FFC"></stop>
		<stop offset="0.6358" style="stop-color:#3C82FD"></stop>
		<stop offset="0.8124" style="stop-color:#1A6CFE"></stop>
	</linearGradient>
	<path style="fill:url(#SVGID_00000018232486547533669010000014917459217365944196_);" d="M269.1,308.8c-3.1-1-6.5-0.9-9.1-3.1
		c-2.6-2.1-5.2-6.6-11.6-8.2c-5.7-1.4-9.6-0.3-14.3,0.8c-4.6,1.1-9.7-0.2-13.4-0.2s-8.7,0.3-11,4.9c-1.9,4-0.2,7.8,3,9.6
		c3.5,2,7.3,0.8,10.8,2s5.1,4.4,3,8.5c-2,4.1-4.5,5.6-3.7,10.3c0.8,4.7,5.4,7,10.1,6.9c5.4-0.2,8.6-1.4,11.9,2.1
		c3.1,3.3,3.4,9.6,11.5,13.3c5.8,2.6,17.7,1.3,21.6-4.3c3.2-4.7,3.8-10.1,0.7-16.6c-3.3-6.9-1.4-8.6-1.2-14.3
		C277.5,315.3,275.4,310.8,269.1,308.8z"></path>
	<path class="st4" d="M408.5,553.3c0,0-0.2,3.6-5.6,4.3c-5.8,0.8-8.5,2.7-9,6.5c-0.4,2.7,1,5.6,3.8,6.9c0.8,0.4,1.7,0.5,2.6,0.5
		h28.5c3.3,0,6-2.7,6-6v-12.1L408.5,553.3L408.5,553.3z"></path>
	<g>
		<path class="st2" d="M184.7,418.1V437h-1.8v-18.9c0-0.4,0.4-0.9,0.9-0.9C184.3,417.2,184.7,417.6,184.7,418.1z"></path>
	</g>
	<path class="st12" d="M553.1,524.6h-39.9v-20.9c0-11,8.9-20,20-20l0,0c11,0,20,8.9,20,20L553.1,524.6L553.1,524.6z"></path>
	<path class="st4" d="M513.2,524.6v14.2c0,0,0,3.5-0.4,4.5c-0.3,0.5-0.9,1.3-2.1,1.6c-3.9,0.9-10.5,1.2-15.2,2.4
		c-11.9,2.9-10.5,8-8.9,9.4c0,0-1.3,1.2-1,3.3c0.2,1.1,0.7,2.4,2.4,2.9c0,0-1.7,3.7,2.2,5.1c0,0-0.7,3.7,3.2,5.1
		c2.2,0.8,10,1.2,13.7,1.2c5.3,0,22,0.6,31.5-3.1c8.2-3.2,12.6-10.8,13.9-20.2c1.3-9.4,0.8-26.1,0.8-26.1L513.2,524.6L513.2,524.6z"></path>
</g>
</svg>
